<?xml version="1.0" standalone="no"?>
<!DOCTYPE svg PUBLIC "-//W3C//DTD SVG 20010904//EN"
 "http://www.w3.org/TR/2001/REC-SVG-20010904/DTD/svg10.dtd">
<svg version="1.0" xmlns="http://www.w3.org/2000/svg"
 width="337.000000pt" height="281.000000pt" viewBox="0 0 337.000000 281.000000"
 preserveAspectRatio="xMidYMid meet">

<g transform="translate(0.000000,281.000000) scale(0.100000,-0.100000)"
fill="#000000" stroke="none">
<path d="M2988 2615 c-22 -13 -35 -13 -72 -3 -82 22 -112 5 -269 -153 l-138
-139 -114 0 c-94 0 -116 -3 -135 -18 -34 -27 -21 -67 26 -82 26 -9 44 -26 66
-61 24 -38 34 -46 47 -39 9 5 110 101 224 214 190 188 211 206 243 206 19 0
34 -4 34 -9 0 -4 -153 -163 -341 -352 l-341 -344 -37 -140 c-21 -77 -41 -155
-44 -174 -7 -33 -7 -33 26 -27 17 3 97 27 176 53 l144 48 126 129 c69 71 221
226 336 343 116 118 214 222 219 231 5 9 22 30 38 45 37 38 52 95 38 147 -12
46 -59 104 -101 126 -36 18 -116 17 -151 -1z m147 -96 c32 -28 36 -37 33 -72
-2 -25 -10 -44 -20 -51 -15 -9 -29 0 -85 56 -57 57 -65 69 -54 82 23 28 85 20
126 -15z m-121 -138 l68 -68 -164 -168 c-338 -349 -454 -465 -464 -465 -16 0
-148 140 -139 148 4 4 142 145 308 315 165 169 306 307 312 307 6 0 41 -31 79
-69z m-690 -693 c20 -23 36 -44 36 -48 0 -3 -29 -15 -65 -27 -75 -24 -75 -24
-49 63 9 31 21 54 29 54 7 0 30 -19 49 -42z"/>
<path d="M2751 2158 c-301 -312 -303 -314 -299 -340 2 -14 11 -24 24 -26 16
-2 74 50 243 221 122 123 228 232 236 243 27 36 15 84 -22 84 -3 0 -85 -82
-182 -182z"/>
<path d="M2056 2535 c-28 -21 -57 -35 -75 -35 -16 0 -34 -7 -41 -15 -21 -25
-3 -51 47 -66 35 -10 54 -24 71 -49 22 -31 23 -42 18 -104 -4 -45 -2 -73 5
-82 34 -41 73 12 72 100 0 58 -20 117 -56 168 -9 14 -8 20 8 32 46 35 120 10
160 -55 14 -22 33 -43 41 -46 23 -9 48 21 41 49 -20 79 -103 138 -193 138 -45
0 -59 -5 -98 -35z"/>
<path d="M1391 2546 c-18 -6 -42 -22 -51 -34 -14 -16 -27 -21 -56 -19 -35 2
-39 -1 -42 -24 -2 -21 3 -29 28 -39 66 -27 117 -120 91 -168 -36 -68 25 -128
66 -65 12 19 18 46 18 88 0 56 -9 85 -46 143 -13 21 -12 25 5 38 35 25 82 18
125 -22 63 -56 86 -143 57 -215 -4 -9 1 -26 12 -39 16 -19 21 -21 41 -11 43
23 53 105 25 200 -20 68 -100 154 -159 170 -49 13 -71 13 -114 -3z"/>
<path d="M1647 2537 c-27 -19 2 -53 52 -60 52 -7 96 -39 121 -87 21 -41 25
-80 14 -152 -6 -41 -4 -47 16 -58 19 -10 26 -9 44 9 31 31 30 177 -1 236 -26
49 -78 100 -116 114 -38 15 -109 14 -130 -2z"/>
<path d="M905 2522 c-61 -38 -82 -101 -42 -126 15 -9 23 -5 50 26 18 21 44 40
59 44 40 9 95 -22 123 -70 33 -57 40 -99 25 -147 -13 -37 -12 -42 8 -62 29
-28 52 -15 71 39 29 84 -21 225 -101 284 -45 34 -149 40 -193 12z"/>
<path d="M686 2310 c-37 -12 -85 -56 -102 -97 -21 -49 -21 -1731 0 -1772 22
-41 81 -89 118 -96 18 -3 433 -4 923 -3 l890 3 33 25 c18 14 42 39 53 56 18
30 19 55 19 610 l0 578 -49 -48 c-39 -38 -62 -52 -122 -70 l-74 -23 -5 -464
c-5 -419 -7 -467 -23 -496 -39 -72 6 -68 -758 -68 l-687 0 -27 25 c-58 54 -55
13 -55 860 0 666 2 785 15 809 18 35 71 81 94 81 26 0 61 29 61 50 0 39 -37
50 -160 49 -63 0 -128 -5 -144 -9z m1843 -1374 c22 -26 -10 -63 -43 -50 -35
13 -24 64 14 64 10 0 23 -6 29 -14z m-1 -176 c4 -12 5 -42 2 -68 -5 -44 -7
-47 -35 -47 -28 0 -30 2 -33 44 -5 67 4 91 34 91 16 0 27 -7 32 -20z m2 -221
c9 -15 8 -24 -1 -35 -28 -33 -80 -3 -59 35 6 12 19 21 30 21 11 0 24 -9 30
-21z"/>
<path d="M999 2052 c-25 -23 -32 -36 -33 -71 -1 -36 4 -47 32 -72 36 -32 69
-36 112 -14 59 31 69 107 21 156 -40 39 -89 40 -132 1z"/>
<path d="M358 1909 c-22 -12 -24 -62 -3 -79 21 -17 61 1 70 31 6 17 2 27 -15
41 -25 21 -29 21 -52 7z"/>
<path d="M303 1783 c-18 -7 -40 -87 -63 -229 -48 -289 -7 -630 103 -853 26
-54 50 -71 75 -55 23 16 20 35 -23 137 -106 254 -130 532 -70 807 14 63 28
127 31 143 9 41 -16 65 -53 50z"/>
<path d="M1635 1702 c-363 -95 -561 -153 -572 -168 -20 -28 -19 -662 2 -690
27 -40 362 -228 389 -219 6 3 49 15 96 29 169 48 465 149 483 164 16 14 17 45
17 387 0 275 -3 374 -12 383 -18 18 -45 15 -154 -18 -54 -16 -102 -30 -106
-30 -5 0 -8 33 -8 74 0 41 -3 81 -6 90 -8 20 -47 19 -129 -2z m63 -129 l-3
-56 -125 -31 c-69 -18 -131 -35 -137 -39 -7 -5 -13 -21 -13 -37 0 -16 -3 -31
-8 -33 -4 -3 -54 22 -111 56 -101 60 -103 61 -75 71 58 20 440 124 457 125 16
1 18 -6 15 -56z m282 -182 c0 -66 -3 -122 -7 -124 -5 -2 -20 -7 -35 -11 -28
-6 -28 -6 -28 42 0 36 -5 54 -20 67 -19 17 -20 17 -30 -9 -5 -15 -10 -49 -10
-76 0 -40 -4 -50 -20 -54 -64 -19 -59 -23 -62 56 -3 70 -4 73 -28 73 -24 0
-25 -2 -30 -85 -5 -79 -6 -85 -30 -91 -47 -13 -49 -11 -52 49 -3 49 -6 57 -23
57 -18 0 -20 -8 -23 -68 -3 -62 -5 -69 -28 -77 -63 -24 -64 -22 -64 115 l0
124 53 16 c47 14 282 80 367 104 73 20 70 24 70 -108z m-829 29 c15 -9 19 -22
19 -65 0 -59 -4 -63 -38 -39 -18 12 -22 25 -22 65 0 51 7 57 41 39z m120 -60
c15 -8 19 -22 19 -60 0 -52 -7 -58 -41 -40 -15 8 -19 22 -19 60 0 52 7 58 41
40z m117 -66 c29 -14 32 -20 32 -59 0 -51 -12 -63 -46 -44 -21 11 -24 20 -24
66 0 29 2 53 3 53 2 0 18 -7 35 -16z m-230 -56 c13 -13 17 -158 4 -158 -4 0
-18 7 -30 16 -19 13 -22 24 -22 85 0 60 2 69 18 69 10 0 23 -5 30 -12z m822
-97 c0 -61 -7 -71 -51 -71 -16 0 -19 7 -19 55 0 48 3 57 23 65 43 17 47 13 47
-49z m-709 39 c16 -9 19 -22 19 -85 0 -41 -3 -75 -8 -75 -4 0 -18 7 -30 16
-19 13 -22 24 -22 85 0 71 5 78 41 59z m579 -76 c0 -49 -2 -55 -26 -64 -49
-19 -54 -15 -54 49 0 57 1 58 33 68 17 5 35 8 40 6 4 -2 7 -29 7 -59z m-432
-49 c2 -22 1 -54 -3 -72 l-6 -33 -29 15 c-29 15 -30 17 -30 91 l0 76 33 -19
c26 -16 33 -26 35 -58z m292 6 c0 -52 -2 -59 -22 -65 -53 -14 -58 -10 -58 49
0 48 3 57 23 65 50 20 57 14 57 -49z m-139 -8 c0 -16 2 -37 4 -48 6 -30 -8
-45 -48 -52 l-37 -6 0 57 c0 49 3 58 23 66 42 17 57 12 58 -17z m-420 -33 c16
-9 19 -22 19 -85 0 -41 -4 -75 -8 -75 -5 0 -18 9 -30 20 -18 17 -22 32 -22 85
0 67 5 74 41 55z m827 -77 l-3 -77 -32 -7 -33 -6 0 74 c0 67 2 74 23 83 46 18
48 15 45 -67z m-128 -37 l0 -74 -31 -11 c-18 -6 -36 -11 -40 -11 -5 0 -9 33
-9 74 0 72 1 75 28 84 50 19 52 17 52 -62z m-577 50 c13 -11 17 -29 17 -90 0
-42 -2 -76 -5 -76 -3 0 -17 7 -30 16 -23 15 -25 23 -25 90 0 77 7 87 43 60z
m437 -95 c0 -73 -2 -79 -22 -85 -55 -14 -58 -11 -58 63 0 78 8 90 73 100 4 0
7 -34 7 -78z m-319 28 c26 -18 29 -26 29 -79 0 -84 -5 -93 -41 -74 -28 14 -29
16 -29 94 0 44 3 80 6 80 3 0 19 -9 35 -21z m183 -20 c3 -17 6 -51 6 -76 0
-41 -3 -45 -35 -59 -19 -7 -39 -14 -45 -14 -6 0 -10 31 -10 79 l0 78 33 11
c17 5 35 10 38 11 4 1 9 -13 13 -30z"/>
<path d="M2836 1707 c-17 -12 -17 -18 4 -122 55 -280 34 -519 -71 -797 -44
-117 -46 -141 -12 -146 29 -4 51 31 103 165 66 171 84 277 84 493 0 151 -4
204 -22 290 -25 121 -44 147 -86 117z"/>
<path d="M722 228 c-16 -16 -15 -43 2 -57 9 -8 223 -10 786 -9 724 3 774 4
784 21 8 12 8 22 0 35 -10 16 -61 17 -786 20 -594 2 -777 -1 -786 -10z"/>
<path d="M2344 228 c-30 -47 -5 -70 72 -66 64 3 88 23 68 56 -14 22 -128 30
-140 10z"/>
</g>
</svg>
